<?xml version="1.0" encoding="UTF-8"?>
<svg width="112px" height="112px" viewBox="0 0 112 112" version="1.1" xmlns="http://www.w3.org/2000/svg" xmlns:xlink="http://www.w3.org/1999/xlink">
    <title>keyaspects5</title>
    <g id="Page-1" stroke="none" stroke-width="1" fill="none" fill-rule="evenodd">
        <g id="홈" transform="translate(-349.000000, -1467.000000)" fill="#4CD3FF" fill-rule="nonzero">
            <g id="Group-15" transform="translate(272.000000, 1379.000000)">
                <g id="keyaspects5" transform="translate(77.000000, 88.000000)">
                    <path d="M53.8031661,20.0302312 C55.3627295,20.0302312 56.7656555,21.0160666 57.2943689,22.4832753 L57.2943689,22.4832753 L58.5343455,25.9251448 C58.5552748,25.9836139 58.6110862,26.0228147 58.6732096,26.0228147 L58.6732096,26.0228147 L72.2514933,26.0228147 C73.7069086,26.0228147 74.8909077,27.2068138 74.8909077,28.662063 L74.8909077,28.662063 L74.8909077,48.6998525 C74.8909077,50.1552678 73.7069086,51.3392669 72.2514933,51.3392669 L72.2514933,51.3392669 L57.1887259,51.3392669 L57.1887259,57.4260321 L84.2373248,57.4260321 C84.9253333,57.4260321 85.4831151,57.983814 85.4831151,58.6718224 L85.4831151,58.6718224 L85.4831151,66.5026942 L93.2467142,66.5026942 C94.4549646,66.5026942 95.4378101,67.4857058 95.4378101,68.6937901 L95.4378101,68.6937901 L95.4378101,74.899653 L96.3530507,74.899653 C97.5646233,74.899653 98.5502926,75.8853223 98.5502926,77.097061 L98.5502926,77.097061 L98.5502926,89.6988112 C98.5502926,90.9105499 97.5644572,91.8963853 96.3528846,91.8963853 L96.3528846,91.8963853 L74.5342794,91.8963853 C73.3225407,91.8963853 72.3368715,90.9103838 72.3368715,89.6988112 L72.3368715,89.6988112 L72.3368715,73.7365832 C72.3368715,72.1215406 73.650765,70.8076471 75.2658075,70.8076471 L75.2658075,70.8076471 L75.4870599,70.8076471 L75.4870599,68.6937901 C75.4870599,67.4855396 76.4700715,66.5026942 77.6781558,66.5026942 L77.6781558,66.5026942 L82.9912023,66.5026942 L82.9912023,59.9176127 L57.1885598,59.9176127 L57.1885598,66.5026942 L64.0779462,66.5026942 C65.2860306,66.5026942 66.2690422,67.4857058 66.2690422,68.6937901 L66.2690422,68.6937901 L66.2690422,74.899653 L67.1844489,74.899653 C68.3961876,74.899653 69.3818569,75.8853223 69.3818569,77.097061 L69.3818569,77.097061 L69.3818569,89.6989773 C69.3818569,90.910716 68.3960215,91.8963853 67.1844489,91.8963853 L67.1844489,91.8963853 L57.5903686,91.8963853 C56.9023602,91.8963853 56.3445784,91.3386034 56.3445784,90.650595 C56.3445784,89.9625865 56.9023602,89.4048047 57.5903686,89.4048047 L57.5903686,89.4048047 L66.8902763,89.4048047 L66.8902763,77.3913997 L57.9127792,77.3913997 C56.9890672,77.3913997 56.1583742,76.8075393 55.8454317,75.9386421 L55.8454317,75.9386421 L54.9986265,73.5885833 C54.936337,73.4156676 54.770896,73.2993938 54.5870174,73.2993938 L54.5870174,73.2993938 L46.0973718,73.2993938 C45.8561868,73.2993938 45.6600163,73.4955643 45.6600163,73.7367493 L45.6600163,73.7367493 L45.6600163,89.4046386 L52.6072075,89.4046386 C53.2952159,89.4046386 53.8529978,89.9624204 53.8529978,90.6504289 C53.8529978,91.3384373 53.2952159,91.8963853 52.6072075,91.8963853 L52.6072075,91.8963853 L45.3658437,91.8963853 C44.154105,91.8963853 43.1684357,90.9103838 43.1684357,89.6988112 L43.1684357,89.6988112 L43.1684357,73.7365832 C43.1684357,72.1215406 44.4823292,70.8076471 46.0973718,70.8076471 L46.0973718,70.8076471 L46.318458,70.8076471 L46.318458,68.6937901 C46.318458,67.4855396 47.3014696,66.5026942 48.509554,66.5026942 L48.509554,66.5026942 L54.6971453,66.5026942 L54.6971453,59.9176127 L29.5589242,59.9176127 L29.5589242,66.5026942 L34.9096766,66.5026942 C36.117761,66.5026942 37.1006065,67.4857058 37.1006065,68.6937901 L37.1006065,68.6937901 L37.1006065,74.899653 L38.0160132,74.899653 C39.2277519,74.899653 40.2134211,75.8853223 40.2134211,77.097061 L40.2134211,77.097061 L40.2134211,89.6989773 C40.2134211,90.910716 39.2275858,91.8963853 38.0160132,91.8963853 L38.0160132,91.8963853 L16.197408,91.8963853 C14.9858354,91.8963853 14,90.9105499 14,89.6989773 L14,89.6989773 L14,73.7367493 C14,72.1215406 15.3138935,70.8076471 16.9291021,70.8076471 L16.9291021,70.8076471 L17.1501884,70.8076471 L17.1501884,68.6937901 C17.1501884,67.4855396 18.1330339,66.5026942 19.3412844,66.5026942 L19.3412844,66.5026942 L27.0673436,66.5026942 L27.0673436,58.6718224 C27.0673436,57.983814 27.6251254,57.4260321 28.3131339,57.4260321 L28.3131339,57.4260321 L54.6973114,57.4260321 L54.6973114,51.3392669 L40.2989654,51.3392669 C38.8435501,51.3392669 37.659551,50.1552678 37.659551,48.6998525 L37.659551,48.6998525 L37.659551,42.6949771 C37.659551,42.0069687 38.2173329,41.4491868 38.9053413,41.4491868 C39.5933498,41.4491868 40.1511316,42.0069687 40.1511316,42.6949771 L40.1511316,42.6949771 L40.1511316,48.6998525 C40.1511316,48.7814102 40.2174077,48.8476863 40.2989654,48.8476863 L40.2989654,48.8476863 L72.2514933,48.8476863 C72.333051,48.8476863 72.3993271,48.7814102 72.3993271,48.6998525 L72.3993271,48.6998525 L72.3993271,28.6618969 C72.3993271,28.5805053 72.333051,28.5142292 72.2514933,28.5142292 L72.2514933,28.5142292 L58.6732096,28.5142292 C57.5637918,28.5142292 56.5659968,27.8130984 56.1901004,26.7694584 L56.1901004,26.7694584 L54.9501237,23.3275889 C54.7765436,22.8455511 54.3156012,22.5216457 53.8031661,22.5216457 L53.8031661,22.5216457 L41.3703451,22.5216457 C40.6979505,22.5216457 40.1511316,23.0686307 40.1511316,23.7408591 L40.1511316,23.7408591 L40.1511316,37.711982 C40.1511316,38.3999905 39.5933498,38.9577723 38.9053413,38.9577723 C38.2173329,38.9577723 37.659551,38.3999905 37.659551,37.711982 L37.659551,37.711982 L37.659551,23.7410252 C37.659551,21.6947731 39.3242591,20.0302312 41.3703451,20.0302312 L41.3703451,20.0302312 Z M25.4185817,73.2993938 L16.928936,73.2993938 C16.687751,73.2993938 16.4915806,73.4955643 16.4915806,73.7367493 L16.4915806,73.7367493 L16.4915806,89.4046386 L37.7216744,89.4046386 L37.7216744,77.3915658 L28.7440112,77.3915658 C27.8206315,77.3915658 26.9897724,76.8077054 26.6768299,75.9389743 L26.6768299,75.9389743 L25.8300247,73.5885833 C25.7677352,73.4155015 25.6022942,73.2993938 25.4185817,73.2993938 L25.4185817,73.2993938 Z M83.7556192,73.2993938 L75.2659736,73.2993938 C75.0247886,73.2993938 74.8286182,73.4955643 74.8286182,73.7367493 L74.8286182,73.7367493 L74.8286182,89.4046386 L96.0588781,89.4046386 L96.0588781,77.3915658 L87.0810488,77.3915658 C86.157669,77.3915658 85.32681,76.8077054 85.0138674,75.9389743 L85.0138674,75.9389743 L84.1672284,73.5885833 C84.1049388,73.4156676 83.9394979,73.2993938 83.7556192,73.2993938 L83.7556192,73.2993938 Z M34.6090259,68.9942748 L19.641769,68.9942748 L19.641769,70.8076471 L25.4187478,70.8076471 C26.6497547,70.8076471 27.7571792,71.5856847 28.1742698,72.7439374 L28.1742698,72.7439374 L28.9509785,74.899653 L34.6090259,74.899653 L34.6090259,68.9942748 Z M63.7774616,68.9942748 L48.8100386,68.9942748 L48.8100386,70.8076471 L54.5870174,70.8076471 C55.8180243,70.8076471 56.9254488,71.5856847 57.3427055,72.7437713 L57.3427055,72.7437713 L58.1194143,74.899653 L63.7774616,74.899653 L63.7774616,68.9942748 Z M92.9460634,68.9942748 L77.9786405,68.9942748 L77.9786405,70.8076471 L83.7556192,70.8076471 C84.9866262,70.8076471 86.0940507,71.5856847 86.5113074,72.7437713 L86.5113074,72.7437713 L87.28785,74.899653 L92.9460634,74.899653 L92.9460634,68.9942748 Z M64.8108031,34.973735 C65.8389954,34.973735 66.6753359,35.8102416 66.6753359,36.8382678 L66.6753359,36.8382678 L66.6753359,43.4173694 C66.6753359,44.4455617 65.8389954,45.2819022 64.8108031,45.2819022 L64.8108031,45.2819022 L47.7396556,45.2819022 C46.7114633,45.2819022 45.8751228,44.4453956 45.8751228,43.4173694 L45.8751228,43.4173694 L45.8751228,36.8382678 C45.8751228,35.8100755 46.7116294,34.973735 47.7396556,34.973735 L47.7396556,34.973735 Z M64.1837553,37.4656478 L48.3667034,37.4656478 L48.3667034,42.7904877 L64.1837553,42.7904877 L64.1837553,37.4656478 Z" id="Combined-Shape"></path>
                </g>
            </g>
        </g>
    </g>
</svg>