<?xml version="1.0" encoding="UTF-8"?>
<svg width="112px" height="112px" viewBox="0 0 112 112" version="1.1" xmlns="http://www.w3.org/2000/svg" xmlns:xlink="http://www.w3.org/1999/xlink">
    <title>keyaspects7</title>
    <g id="Page-1" stroke="none" stroke-width="1" fill="none" fill-rule="evenodd">
        <g id="홈" transform="translate(-979.000000, -1467.000000)">
            <g id="Group-23" transform="translate(902.000000, 1379.000000)">
                <g id="keyaspects7" transform="translate(77.000000, 88.000000)">
                    <g id="blockchain-(2)" transform="translate(3.000000, 15.000000)">
                        <path d="M58.3276463,0.197761915 C58.784286,-0.065728364 59.3464371,-0.065728364 59.8030768,0.197761915 L59.8030768,0.197761915 L83.9951779,14.1650549 C85.1240926,12.9888618 86.7102236,12.2543178 88.4652882,12.2543178 C91.8837435,12.2543178 94.6645177,15.0350918 94.6645177,18.4535473 C94.6645177,21.3628954 92.6494221,23.8092618 89.9412952,24.4734649 L89.9412952,24.4734649 L89.9412952,52.3982493 C89.9412952,52.9252299 89.6599314,53.4130042 89.2032917,53.6764944 L89.2032917,53.6764944 L65.0146501,67.6414813 C65.1749351,68.1915245 65.2619965,68.7715492 65.2619965,69.3723301 C65.2619965,72.7902089 62.4812223,75.5715596 59.0633436,75.5715596 C55.6448883,75.5715596 52.8641141,72.7902089 52.8641141,69.3723301 C52.8641141,68.7709725 52.951752,68.1897948 53.112037,67.6397516 L53.112037,67.6397516 L28.9274314,53.6764944 C28.4707917,53.4124276 28.1894279,52.9252299 28.1894279,52.3982493 L28.1894279,52.3982493 L28.1894279,24.4734649 C25.481301,23.8092618 23.4662054,21.3628954 23.4662054,18.4535473 C23.4662054,15.0350918 26.2469796,12.2543178 29.6654349,12.2543178 C31.4204995,12.2543178 33.0060539,12.9888618 34.1349687,14.1650549 L34.1349687,14.1650549 Z M59.0633436,66.1251147 C57.2725318,66.1251147 55.8161281,67.5820951 55.8161281,69.3723301 C55.8161281,71.1631417 57.2725318,72.6195456 59.0633436,72.6195456 C60.8535786,72.6195456 62.310559,71.1631417 62.310559,69.3723301 C62.310559,67.5820951 60.8535786,66.1251147 59.0633436,66.1251147 Z M59.0650733,3.18033388 L35.6155882,16.7186623 C35.77645,17.2698587 35.8640879,17.851613 35.8640879,18.4535473 C35.8640879,21.3628954 33.8489923,23.8092618 31.1414419,24.4734649 L31.1414419,24.4734649 L31.1414419,51.5460858 L54.5920801,65.084991 C55.7209949,63.9082213 57.3077024,63.1731006 59.0633436,63.1731006 C60.8201379,63.1731006 62.4068454,63.9087979 63.5363366,65.0867207 L63.5363366,65.0867207 L86.9892812,51.5460858 L86.9892812,24.4734649 C84.2817308,23.8092618 82.2666352,21.3628954 82.2666352,18.4535473 C82.2666352,17.8510365 82.3542731,17.2698587 82.5151349,16.7186623 L82.5151349,16.7186623 L59.0650733,3.18033388 Z M58.3276463,11.6489242 C58.784286,11.3854339 59.3464371,11.3854339 59.8030768,11.6489242 L59.8030768,11.6489242 L79.2863695,22.8971355 C79.7430092,23.1612024 80.024373,23.6484 80.024373,24.1753806 L80.024373,24.1753806 L80.024373,46.6723799 C80.024373,47.1993606 79.7430092,47.6871347 79.2863695,47.9506251 L79.2863695,47.9506251 L59.8030768,59.199413 C59.574757,59.3308698 59.3204916,59.3971749 59.0650733,59.3971749 C58.8102314,59.3971749 58.5559661,59.3308698 58.3276463,59.199413 L58.3276463,59.199413 L38.8443536,47.9506251 C38.3877139,47.6871347 38.1063501,47.1993606 38.1063501,46.6723799 L38.1063501,46.6723799 L38.1063501,24.1753806 C38.1063501,23.6484 38.3877139,23.1612024 38.8443536,22.8971355 L38.8443536,22.8971355 Z M77.072359,26.731871 L59.8030768,36.7024137 C59.574757,36.8338706 59.3204916,36.9001756 59.0650733,36.9001756 C58.8102314,36.9001756 58.5559661,36.8338706 58.3276463,36.7024137 L58.3276463,36.7024137 L41.0583641,26.731871 L41.0583641,45.8202165 L57.5896428,55.3646775 L57.5896428,48.7082318 C57.5896428,47.8929685 58.2503865,47.2322248 59.0650733,47.2322248 C59.8803365,47.2322248 60.5410803,47.8929685 60.5410803,48.7082318 L60.5410803,48.7082318 L60.5410803,55.3646775 L77.072359,45.8202165 L77.072359,26.731871 Z M59.0639201,40.5901931 C59.4519486,40.5901931 59.8330582,40.7475954 60.1075032,41.0226172 C60.3819483,41.2970621 60.5399271,41.6775953 60.5399271,42.0662002 C60.5399271,42.4542285 60.3819483,42.8347616 60.1075032,43.1092067 C59.8330582,43.3842284 59.4519486,43.5422072 59.0639201,43.5422072 C58.674162,43.5422072 58.2947821,43.3842284 58.0186073,43.1092067 C57.7441623,42.8347616 57.5861833,42.4542285 57.5861833,42.0662002 C57.5861833,41.6775953 57.7441623,41.2970621 58.0186073,41.0226172 C58.2947821,40.7475954 58.674162,40.5901931 59.0639201,40.5901931 Z M59.0650733,14.6314961 L42.5343712,24.1753806 L59.0650733,33.7198417 L75.596352,24.1753806 L59.0650733,14.6314961 Z M29.6654349,15.2063318 C27.8746233,15.2063318 26.4182195,16.6627355 26.4182195,18.4535473 C26.4182195,20.2437823 27.8746233,21.7007627 29.6654349,21.7007627 C31.45567,21.7007627 32.9120738,20.2437823 32.9120738,18.4535473 C32.9120738,16.6627355 31.45567,15.2063318 29.6654349,15.2063318 Z M88.4652882,15.2063318 C86.6750531,15.2063318 85.2180727,16.6627355 85.2180727,18.4535473 C85.2180727,20.2437823 86.6750531,21.7007627 88.4652882,21.7007627 C90.2560998,21.7007627 91.7125036,20.2437823 91.7125036,18.4535473 C91.7125036,16.6627355 90.2560998,15.2063318 88.4652882,15.2063318 Z" id="Combined-Shape" fill="#4CD3FF" fill-rule="nonzero"></path>
                        <circle id="Oval" fill="#FFFFFF" cx="22.278481" cy="55.6962025" r="22.278481"></circle>
                        <g id="search-(1)" transform="translate(7.000000, 43.000000)" fill="#4CD3FF" fill-rule="nonzero">
                            <path d="M13.9885687,-2.84217094e-13 C17.5519218,-2.84217094e-13 21.1152749,1.34829578 23.8600199,4.09304075 C26.6047649,6.78963231 27.9530607,10.4011389 27.9530607,13.964492 C27.9530607,17.0463109 26.9899923,20.0799764 24.9675486,22.6321077 L24.9675486,22.6321077 L27.5678333,25.2323924 C27.9049073,25.0879321 28.2901346,25.0397787 28.6272086,25.0397787 C29.5421236,25.0397787 30.505192,25.4250061 31.1793399,26.099154 L31.1793399,26.099154 L38.5468132,33.4666273 C39.2691145,34.1889286 39.6061885,35.1038436 39.6061885,36.0187586 C39.6061885,36.9336736 39.2209611,37.896742 38.5468132,38.5708899 C37.8245119,39.2931912 36.9095969,39.6302652 35.9946819,39.6302652 C35.0797669,39.6302652 34.1648519,39.2450378 33.490704,38.5708899 L33.490704,38.5708899 L26.1232307,31.1552631 C25.4009294,30.4811153 25.0638554,29.5662003 25.0638554,28.6512853 C25.0638554,28.2660579 25.1601623,27.928984 25.2564691,27.59191 L25.2564691,27.59191 L22.6561844,24.9916253 C20.1522065,26.9659156 17.0703876,27.9771374 14.0367221,27.9771374 C10.4252156,27.9771374 6.86186244,26.5806882 4.11711746,23.8359432 C1.37237249,21.1393517 0.0240767103,17.5278451 0.0240767103,13.964492 C0.0240767103,10.4011389 1.37237249,6.83778573 4.11711746,4.09304075 C6.81370902,1.34829578 10.4252156,-2.84217094e-13 13.9885687,-2.84217094e-13 Z M28.8010126,28.0004668 L28.7163844,28.0129161 C28.5185822,28.0129161 28.3702306,28.0625685 28.2218789,28.2115256 C28.0735273,28.3604828 28.0240767,28.50944 28.0240767,28.7080496 C28.0240767,28.9066592 28.0735273,29.0556164 28.2218789,29.2045736 L28.2218789,29.2045736 L35.8372635,36.8013904 C35.9856152,36.9503476 36.1339668,37 36.331769,37 C36.5295712,37 36.6779229,36.9503476 36.8262745,36.8013904 C36.9746262,36.6524332 37.0240767,36.503476 37.0240767,36.3048664 C37.0240767,36.1062568 36.9746262,35.9572997 36.8262745,35.8083425 L36.8262745,35.8083425 L29.2603404,28.2115256 C29.1119888,28.0625685 28.9141866,27.9632637 28.7163844,28.0129161 Z M14.0367221,2.84105182 C11.1956703,2.84105182 8.35461848,3.94858049 6.18771455,6.11548442 C4.02081062,8.28238835 2.91328195,11.1234402 2.91328195,13.964492 C2.91328195,16.8055438 4.02081062,19.6465956 6.18771455,21.8134995 C8.35461848,23.9804035 11.1956703,25.0879321 14.0367221,25.0879321 C16.8777739,25.0879321 19.7188257,23.9804035 21.8857297,21.8134995 C24.0526336,19.6465956 25.1120089,16.8055438 25.1120089,13.964492 C25.1120089,11.1234402 24.0526336,8.28238835 21.8857297,6.11548442 C19.7188257,3.94858049 16.8777739,2.84105182 14.0367221,2.84105182 Z M10.7141361,5.77841048 C12.3513524,5.15241601 14.133029,5.00795575 15.7702453,5.34502969 C17.455615,5.68210363 18.9965244,6.50071178 20.2485134,7.75270072 C21.0189681,8.47500203 21.5968092,9.3417636 22.0301899,10.2566786 C22.4635707,11.1715936 22.7524912,12.1828154 22.7524912,13.2903441 C22.8487981,14.0607988 22.2228036,14.7831001 21.4523489,14.8312536 C20.6818942,14.9275604 19.9595929,14.3015659 19.9114394,13.5311112 C19.863286,12.8088099 19.6706723,12.134662 19.3817518,11.5086675 C19.0928313,10.8826731 18.6594505,10.304832 18.1779163,9.82329781 C17.3593081,8.95653624 16.2999329,8.42684861 15.1924042,8.18608151 C14.0848755,7.9453144 12.88104,8.04162124 11.7735113,8.47500203 C11.0030566,8.76392255 10.1844485,8.37869519 9.89552794,7.65639388 C9.60660742,6.88593915 9.99183478,6.067331 10.7141361,5.77841048 Z" id="Combined-Shape"></path>
                        </g>
                    </g>
                </g>
            </g>
        </g>
    </g>
</svg>