<svg width="112" height="112" xmlns="http://www.w3.org/2000/svg">
    <g transform="translate(19 20)" fill="#4CD3FF" fill-rule="nonzero">
        <path d="M41.38 23.368c.714 0 1.293-.58 1.293-1.298 0-.717-.58-1.298-1.294-1.298H37.5c-.714 0-1.293.581-1.293 1.298v7.79c0 .717.579 1.298 1.293 1.298s1.293-.581 1.293-1.298v-2.597h2.586c.715 0 1.294-.581 1.294-1.298 0-.717-.58-1.298-1.294-1.298h-2.586v-1.299h2.586zM33.62 20.772c-.713 0-1.292.581-1.292 1.298v2.06l-2.965-2.978a1.288 1.288 0 0 0-1.41-.281c-.483.2-.798.674-.798 1.2v7.789c0 .717.58 1.298 1.293 1.298.715 0 1.293-.581 1.293-1.298v-4.656l2.587 2.597v2.059c0 .717.579 1.298 1.293 1.298s1.293-.581 1.293-1.298v-7.79c0-.717-.58-1.298-1.293-1.298zM49.138 29.86v-6.492h1.293c.714 0 1.293-.58 1.293-1.298 0-.717-.579-1.298-1.293-1.298H45.26c-.714 0-1.293.581-1.293 1.298 0 .717.579 1.298 1.293 1.298h1.293v6.492c0 .717.579 1.298 1.293 1.298s1.293-.581 1.293-1.298z"/>
        <path d="M74.804 48.646 68.338 38.26a1.293 1.293 0 0 0-1.096-.61h-5.358a26.02 26.02 0 0 0 2.771-11.685C64.655 11.648 53.053 0 38.793 0c-14.26 0-25.862 11.648-25.862 25.965 0 4.08.96 8.076 2.772 11.684H7.759c-.446 0-.86.23-1.097.61L.196 48.647c-.249.4-.262.904-.034 1.317.229.413.66.669 1.131.669h5.173v22.07c0 .717.579 1.298 1.293 1.298h59.483c.714 0 1.293-.581 1.293-1.298v-22.07h5.172c.47 0 .903-.256 1.13-.67a1.303 1.303 0 0 0-.033-1.316zM15.517 25.965c0-12.886 10.442-23.369 23.276-23.369 12.835 0 23.276 10.483 23.276 23.369a23.39 23.39 0 0 1-3.128 11.684h-6.314a18.158 18.158 0 0 0 4.27-11.684c0-10.022-8.121-18.176-18.104-18.176-9.982 0-18.103 8.154-18.103 18.176 0 4.326 1.54 8.433 4.269 11.684h-6.313a23.383 23.383 0 0 1-3.129-11.684zm13.038 11.684a15.56 15.56 0 0 1-5.279-11.684c0-8.59 6.961-15.579 15.517-15.579S54.31 17.375 54.31 25.965c0 4.49-1.926 8.721-5.275 11.684h-20.48zm-20.08 2.597h38.33l-4.85 7.79H3.627l4.85-7.79zm.577 10.386h33.62c.446 0 .86-.231 1.097-.61l4.076-6.548v27.93H9.052V50.632zm56.896 20.772H50.431v-27.93l4.076 6.547c.236.38.65.61 1.097.61h10.344v20.773zM56.32 48.035l-4.849-7.79h15.054l4.849 7.79H56.32z"/>
        <path d="M43.966 64.912H32.328c-.714 0-1.293.582-1.293 1.299 0 .716.579 1.298 1.293 1.298h11.638c.714 0 1.293-.582 1.293-1.298 0-.717-.58-1.299-1.293-1.299zM4.526 26.786c.808 0 1.464-.658 1.464-1.47 0-.812-.655-1.47-1.464-1.47-.809 0-1.464.658-1.464 1.47 0 .812.655 1.47 1.464 1.47zM3.723 13.14a1.287 1.287 0 0 0 1.828 0l.915-.918.914.918a1.287 1.287 0 0 0 1.828 0 1.302 1.302 0 0 0 0-1.836l-.914-.918.914-.918a1.302 1.302 0 0 0 0-1.836 1.29 1.29 0 0 0-1.828 0l-.914.918-.915-.918a1.29 1.29 0 0 0-1.828 0 1.302 1.302 0 0 0 0 1.836l.914.918-.914.918a1.301 1.301 0 0 0 0 1.836z"/>
        <ellipse cx="38.793" cy="5.193" rx="1.293" ry="1.298"/>
        <ellipse cx="59.483" cy="25.965" rx="1.293" ry="1.298"/>
        <ellipse cx="18.104" cy="25.965" rx="1.293" ry="1.298"/>
        <path d="M25.078 12.195a1.302 1.302 0 0 0 0-1.836 1.29 1.29 0 0 0-1.83 0 1.302 1.302 0 0 0 0 1.836 1.289 1.289 0 0 0 1.83 0zM54.337 12.195a1.302 1.302 0 0 0 0-1.836 1.29 1.29 0 0 0-1.828 0 1.302 1.302 0 0 0 0 1.836 1.289 1.289 0 0 0 1.828 0z"/>
    </g>
</svg>
