<?xml version="1.0" encoding="UTF-8"?>
<svg width="112px" height="112px" viewBox="0 0 112 112" version="1.1" xmlns="http://www.w3.org/2000/svg" xmlns:xlink="http://www.w3.org/1999/xlink">
    <title>keyaspects1</title>
    <g id="Page-1" stroke="none" stroke-width="1" fill="none" fill-rule="evenodd">
        <g id="홈" transform="translate(-192.000000, -1138.000000)" fill="#4CD3FF" fill-rule="nonzero">
            <g id="Group-22" transform="translate(114.000000, 1048.000000)">
                <g id="keyaspects1" transform="translate(78.000000, 90.000000)">
                    <g id="contract-(2)" transform="translate(21.000000, 17.000000)">
                        <path d="M57.4916078,40.0335686 C58.7242353,39.3033725 60.312,39.7105882 61.0415686,40.9425882 L61.0415686,40.9425882 L71.0522353,57.8398431 C71.7824314,59.0723137 71.3753725,60.6602353 70.1430588,61.3896471 L70.1430588,61.3896471 L67.708549,62.8321569 C66.438902,63.5841569 64.9239216,63.6713725 63.5963922,63.1264314 L63.5963922,63.1264314 L62.0271373,64.0432941 C62.4061176,64.4930196 62.6821961,65.0255686 62.8323137,65.6122353 C63.0947451,66.6376471 62.9421176,67.7036863 62.4026667,68.6142745 C61.3996863,70.3071373 59.3239216,70.9807059 57.5479216,70.2837647 C57.4906667,70.8341961 57.3167059,71.3811765 57.0166275,71.8875294 C56.1021176,73.4310588 54.2961569,74.1270588 52.6390588,73.7104314 C52.5960784,74.3022745 52.4192941,74.8928627 52.0967843,75.4373333 C50.9830588,77.3168627 48.5482353,77.9402353 46.6682353,76.8268235 L46.6682353,76.8268235 C46.5970196,77.3626667 46.4199216,77.8878431 46.1344314,78.3697255 C45.0180392,80.2547451 42.5887059,80.8748235 40.7058824,79.7590588 L40.7058824,79.7590588 L37.8588235,78.0724706 C36.5414902,79.6489412 34.2061176,79.9662745 32.5107451,78.7494902 C31.8614902,78.2832941 31.3960784,77.6552157 31.1283137,76.9596863 C29.9046275,77.4823529 28.4360784,77.3843137 27.254902,76.5364706 C26.376,75.9054118 25.8332549,74.9785098 25.6632157,73.9880784 C24.5926275,74.1567059 23.5639216,73.8867451 22.7380392,73.2938039 C21.8586667,72.6622745 21.3156078,71.7345882 21.1460392,70.7433725 C20.0773333,70.9112157 19.0439216,70.6415686 18.2213333,70.0511373 C16.4425098,68.7742745 16.0368627,66.3011765 17.3135686,64.5226667 L17.3135686,64.5226667 L18.3849412,63.0304314 L17.8774902,62.7309804 C17.1254902,63.2178824 16.2459608,63.4763922 15.3538824,63.4763922 C14.5538824,63.4763922 13.7441569,63.2688627 13.0073725,62.8323137 L13.0073725,62.8323137 L10.572549,61.3898039 C9.34023529,60.6599216 8.93427451,59.0716863 9.66384314,57.84 L9.66384314,57.84 L19.6748235,40.9425882 C20.4029804,39.7134118 21.995451,39.3058824 23.2246275,40.0338824 L23.2246275,40.0338824 L25.659451,41.4763922 C25.6596078,41.476549 25.6596078,41.476549 25.6596078,41.476549 L25.8594816,41.6017854 C27.4237739,42.6373737 28.1527655,44.4693459 27.8624314,46.2089412 L27.8624314,46.2089412 L28.4821961,46.5742745 C29.4538039,47.1499608 30.6123922,47.2462745 31.6638431,46.84 L31.6638431,46.84 L33.934902,45.9620392 C36.4826667,44.9764706 37.9253333,45.3830588 40.3253333,46.7494902 C40.3598285,46.7376708 40.3900371,46.7274028 40.4197575,46.71766 L40.4644467,46.7033111 C40.6153555,46.655939 40.8015389,46.6088627 41.4977975,46.433778 L41.7224521,46.3772841 C42.3247183,46.225807 43.2406092,45.9951081 44.6704314,45.6310588 C46.2797386,45.2240523 47.4657952,45.6291765 48.6473203,46.1237008 L49.0909975,46.3119265 C49.536098,46.5015196 49.9879216,46.6909804 50.468549,46.8421961 C51.2967843,47.1623529 52.1962353,47.1670588 53.0166275,46.8698039 C52.3676863,44.8618039 53.1665882,42.5959216 55.0566275,41.4762353 L55.0566275,41.4762353 Z M38.0886275,48.2376471 C36.8031373,47.6310588 36.0864314,47.6638431 34.7868235,48.1661176 L34.7868235,48.1661176 L32.5157647,49.0440784 C30.7488627,49.7273725 28.8423529,49.5344314 27.28,48.6089412 L27.28,48.6089412 L26.9262745,48.4003137 L19.4956863,60.942902 L20.0370196,61.2624314 C21.3556078,60.4572549 23.0848627,60.4661961 24.4167843,61.4221176 C24.8942745,61.7648627 25.2716863,62.1956078 25.545098,62.6757647 C26.8905098,61.3146667 29.0687059,61.0936471 30.6715294,62.2439216 C31.5237647,62.8555294 32.0886275,63.7603137 32.2652549,64.7932549 C33.2578824,64.6376471 34.3096471,64.8555294 35.1880784,65.4864314 C36.6718431,66.5515294 37.1987451,68.4592941 36.5876078,70.0933333 C37.1637647,70.1904314 37.7270588,70.4164706 38.2329412,70.779451 C39.955451,72.0158431 40.3894902,74.3888627 39.2483137,76.1498039 L39.2483137,76.1498039 L41.9104314,77.7267451 C42.6694902,78.1763137 43.6522353,77.9248627 44.1019608,77.1658039 C44.5532549,76.4037647 44.3000784,75.4243137 43.5410196,74.9747451 L43.5410196,74.9747451 L43.5400784,74.9741176 L41.2580392,73.6221176 C40.6966275,73.2895686 40.5113725,72.5648627 40.8439216,72.003451 C41.1764706,71.4418824 41.9010196,71.2566275 42.4625882,71.5893333 L42.4625882,71.5893333 L44.7441569,72.9411765 C44.7444706,72.9413333 44.7447843,72.9414902 44.745098,72.9416471 L44.7456471,72.9420196 L47.8726275,74.7943529 C48.6316863,75.2439216 49.6144314,74.9924706 50.0641569,74.2334118 C50.5145098,73.4729412 50.2638431,72.4938039 49.5043137,72.0428235 L49.5043137,72.0428235 L49.5030588,72.0420392 L43.6774902,68.5907451 C43.1160784,68.2581961 42.9308235,67.5334902 43.2633725,66.9720784 C43.5959216,66.4106667 44.3203137,66.2254118 44.8820392,66.5579608 C47.4939608,68.1054118 49.8683922,69.5121569 52.7926275,71.244549 C53.5512157,71.6936471 54.5342745,71.4425098 54.984,70.683451 C55.4352941,69.9214118 55.1821176,68.9418039 54.4230588,68.4922353 L54.4230588,68.4922353 L46.516549,63.808 C45.9551373,63.475451 45.7698824,62.7507451 46.1024314,62.1893333 C46.4349804,61.6279216 47.1595294,61.4426667 47.721098,61.7752157 C48.6048627,62.2988235 56.8941176,67.2097255 58.1791373,67.9709804 C58.9380392,68.4203922 59.9206275,68.1687843 60.3701961,67.4100392 C60.5879216,67.0425098 60.6495686,66.6122353 60.5436863,66.198902 C60.4378039,65.785098 60.177098,65.4373333 59.8095686,65.2196078 C59.0661631,64.779151 55.4385922,62.6309007 51.853151,60.5076537 L51.1128966,60.0692863 C47.9160513,58.1761666 44.9152886,56.3992019 44.219451,55.9871373 C43.9650196,56.7350588 43.540549,57.4202353 42.9654902,57.9949804 C41.9789804,58.9808627 40.6676078,59.5237647 39.273098,59.5237647 L39.273098,59.5237647 C37.8793725,59.5228235 36.7482353,58.3901176 36.7482353,56.9987451 L36.7482353,56.9987451 L36.7482353,51.7603137 C36.7482353,50.4232157 37.2475294,49.1825882 38.0886275,48.2376471 Z M36.854902,72.6983529 C36.1391373,72.1846275 35.1378824,72.3483922 34.624,73.0646275 L34.624,73.0646275 L33.5214118,74.6003137 C33.0086275,75.3163922 33.1731765,76.3160784 33.8887843,76.8299608 C34.604549,77.3441569 35.6056471,77.1797647 36.1195294,76.4635294 L36.1195294,76.4635294 L37.2211765,74.9292549 C37.7352157,74.2131765 37.5708235,73.2122353 36.854902,72.6983529 Z M33.8101961,67.4051765 C33.0944314,66.8912941 32.0930196,67.0556863 31.5792941,67.7716078 L31.5792941,67.7716078 L28.2665098,72.3860392 L28.2665098,72.3860392 L28.1823427,72.5161132 C27.7740324,73.2188849 27.9592803,74.1332872 28.6329412,74.6169412 C29.3491765,75.1312941 30.3496471,74.9667451 30.8636863,74.2506667 L30.8636863,74.2506667 L32.7044706,71.6865882 C32.7046275,71.6864314 32.7046275,71.6864314 32.7046275,71.6864314 L34.1764706,69.6360784 C34.6905098,68.92 34.5262745,67.9192157 33.8101961,67.4051765 Z M41.601098,-4.26325641e-14 C42.897098,-4.26325641e-14 44.115451,0.504784314 45.0318431,1.42117647 L45.0318431,1.42117647 L56.3024314,12.6917647 C57.2188235,13.6083137 57.7236078,14.8268235 57.7236078,16.1228235 L57.7236078,16.1228235 L57.7236078,36.2420392 C57.7236078,36.8945882 57.1946667,37.4235294 56.5421176,37.4235294 C55.8895686,37.4235294 55.3606275,36.8945882 55.3606275,36.2420392 L55.3606275,36.2420392 L55.3606275,16.1226667 C55.3606275,16.0081569 55.3502745,15.8953725 55.3350588,15.7836863 L55.3350588,15.7836863 L47.9667451,15.7836863 C44.6436078,15.7836863 41.9399216,13.0801569 41.9399216,9.75686275 L41.9399216,9.75686275 L41.9399216,2.38839216 C41.8283922,2.37333333 41.7156078,2.36282353 41.601098,2.36282353 L41.601098,2.36282353 L6.14133333,2.36282353 C4.12109804,2.36282353 2.47733333,4.00658824 2.47733333,6.02682353 L2.47733333,6.02682353 L2.47733333,68.4409412 C2.47733333,70.4611765 4.12109804,72.1047843 6.14133333,72.1047843 L6.14133333,72.1047843 L18.4498824,72.1047843 C19.1024314,72.1047843 19.6313725,72.6335686 19.6313725,73.2861176 C19.6313725,73.9386667 19.1024314,74.4676078 18.4498824,74.4676078 L18.4498824,74.4676078 L6.14133333,74.4676078 C2.81819608,74.4676078 0.114509804,71.7640784 0.114509804,68.4409412 L0.114509804,68.4409412 L0.114509804,6.02682353 C0.114509804,2.70368627 2.81803922,-4.26325641e-14 6.14133333,-4.26325641e-14 L6.14133333,-4.26325641e-14 Z M28.3643922,63.8622745 C28.2773333,63.8622745 28.1896471,63.8693333 28.1021176,63.8837647 C27.6807843,63.9527843 27.3116863,64.1821176 27.0625882,64.5289412 L27.0625882,64.5289412 L25.3247059,66.9496471 L25.3247059,66.9496471 L23.7498039,69.1433725 C23.2357647,69.8592941 23.4,70.8602353 24.1160784,71.3744314 C24.8338824,71.8898824 25.832,71.7256471 26.3468235,71.008 L26.3468235,71.008 L29.6596078,66.3934118 C29.9087059,66.0465882 30.0076863,65.6235294 29.9385098,65.2020392 C29.8694902,64.7807059 29.6401569,64.4117647 29.2934902,64.1626667 C29.0186667,63.9654902 28.696,63.8622745 28.3643922,63.8622745 Z M23.0387451,63.3408627 C22.3091765,62.817098 21.3094902,63.0083137 20.8078431,63.7071373 L20.8078431,63.7071373 L19.233098,65.9007059 C18.7176471,66.6185098 18.8817255,67.6164706 19.5992157,68.1316078 C20.3149804,68.6453333 21.3162353,68.4815686 21.8302745,67.7651765 L21.8302745,67.7651765 L23.4051765,65.5716078 C23.9190588,64.8555294 23.7548235,63.854902 23.0387451,63.3408627 Z M59.0084706,42.1465098 C58.9425882,42.035451 58.8018824,42.0031373 58.6955294,42.0663529 L58.6955294,42.0663529 L56.2607059,43.5087059 C55.1882353,44.1444706 54.8341961,45.5267451 55.4696471,46.5993725 L55.4696471,46.5993725 L56.8741961,48.9700392 C57.2065882,49.531451 57.0211765,50.2561569 56.4597647,50.5887059 C55.8985098,50.921098 55.1738039,50.736 54.841098,50.1742745 L54.841098,50.1742745 L54.128,48.9705098 C52.6996078,49.580549 51.0903529,49.6158431 49.6103529,49.0432941 C47.4784314,48.3217255 46.6735686,47.5614118 45.2497255,47.9212549 L45.2497255,47.9212549 L41.3256471,48.9143529 C40.0523922,49.2367059 39.110902,50.3912157 39.110902,51.7596863 L39.110902,51.7596863 L39.110902,56.9981176 C39.110902,57.0875294 39.1827451,57.1603137 39.2710588,57.1603137 L39.2710588,57.1603137 C40.0367059,57.1603137 40.7548235,56.862902 41.2950588,56.3231373 C42.1245561,55.4939109 42.1374014,54.4750293 42.1334626,54.167102 L42.1334902,54.0779608 C42.1334902,53.163451 43.1305098,52.5960784 43.9168627,53.0614902 L43.9168627,53.0614902 L59.9675294,62.5665882 C60.16,62.4183529 60.3612549,62.2818824 60.5705098,62.1579608 L60.5705098,62.1579608 L61.6056471,61.5532549 C61.526902,61.4436078 61.4508235,61.3311373 61.3807059,61.2128627 L61.3807059,61.2128627 L57.6574118,54.928 C57.3250196,54.3665882 57.5104314,53.6418824 58.0718431,53.3093333 C58.6327843,52.977098 59.3578039,53.1623529 59.6905098,53.7237647 L59.6905098,53.7237647 L63.4138039,60.0084706 C64.0475294,61.0782745 65.4338824,61.4332549 66.5043137,60.7995294 L66.5043137,60.7995294 L68.9392941,59.3568627 C69.0481569,59.2923922 69.0837647,59.1529412 69.0191373,59.0439216 L69.0191373,59.0439216 Z M22.020549,42.0665098 C21.9129412,42.0025098 21.7722353,42.0378039 21.7077647,42.1465098 L21.7077647,42.1465098 L11.6967843,59.0442353 C11.6327843,59.1524706 11.6687059,59.2927059 11.7769412,59.3568627 L11.7769412,59.3568627 L14.2117647,60.7995294 C15.2821961,61.4334118 16.668549,61.0787451 17.3025882,60.0083137 L17.3025882,60.0083137 L25.2462745,46.5996863 C25.8756078,45.5375686 25.537098,44.1499608 24.4552157,43.5088627 L24.4552157,43.5088627 Z M48.1496471,28.8778039 C48.8021961,28.8778039 49.3312941,29.4067451 49.3312941,30.0592941 C49.3312941,30.7118431 48.8023529,31.2407843 48.1498039,31.2407843 L48.1498039,31.2407843 L9.68862745,31.2407843 C9.03607843,31.2407843 8.50713725,30.7118431 8.50713725,30.0592941 C8.50713725,29.4067451 9.03607843,28.8778039 9.68862745,28.8778039 L9.68862745,28.8778039 Z M48.1496471,21.6163137 C48.8021961,21.6163137 49.3312941,22.1452549 49.3312941,22.7978039 C49.3312941,23.4503529 48.8023529,23.9792941 48.1498039,23.9792941 L48.1498039,23.9792941 L9.68862745,23.9792941 C9.03607843,23.9792941 8.50713725,23.4503529 8.50713725,22.7978039 C8.50713725,22.1452549 9.03607843,21.6163137 9.68862745,21.6163137 L9.68862745,21.6163137 Z M28.9190588,13.4207059 C29.5716078,13.4207059 30.100549,13.9496471 30.100549,14.6021961 C30.100549,15.2547451 29.5716078,15.7836863 28.9190588,15.7836863 L28.9190588,15.7836863 L9.68862745,15.7836863 C9.03607843,15.7836863 8.50713725,15.254902 8.50713725,14.6021961 C8.50713725,13.9496471 9.03607843,13.4207059 9.68862745,13.4207059 L9.68862745,13.4207059 Z M44.302902,4.03388235 L44.302902,9.75686275 C44.302902,11.777098 45.9466667,13.4208627 47.966902,13.4208627 L47.966902,13.4208627 L53.6898824,13.4208627 L44.302902,4.03388235 Z" id="Combined-Shape"></path>
                    </g>
                </g>
            </g>
        </g>
    </g>
</svg>