<?xml version="1.0" encoding="UTF-8"?>
<svg width="112px" height="112px" viewBox="0 0 112 112" version="1.1" xmlns="http://www.w3.org/2000/svg" xmlns:xlink="http://www.w3.org/1999/xlink">
    <title>keyaspects3</title>
    <g id="Page-1" stroke="none" stroke-width="1" fill="none" fill-rule="evenodd">
        <g id="홈" transform="translate(-822.000000, -1136.000000)" fill="#4CD3FF" fill-rule="nonzero">
            <g id="Group-19" transform="translate(744.000000, 1048.000000)">
                <g id="keyaspects3" transform="translate(78.000000, 88.000000)">
                    <g id="electronic-signature" transform="translate(18.000000, 17.000000)">
                        <path d="M68.7064516,0 C72.7283226,0 76,3.27167742 76,7.29354839 C76,9.24135484 75.2412258,11.0727097 73.8634194,12.4505161 L73.8634194,12.4505161 L68.9393548,17.3745806 C71.5809677,18.056129 73.5483871,20.4390968 73.5483871,23.2903226 L73.5483871,23.2903226 L73.5483871,63.7419355 L76,63.7419355 L76,69.8709677 C76,73.2505161 73.2505161,76 69.8709677,76 L69.8709677,76 L6.12903226,76 C2.74948387,76 0,73.2505161 0,69.8709677 L0,69.8709677 L0,63.7419355 L2.4516129,63.7419355 L2.4516129,23.2903226 C2.4516129,19.9107742 5.20109677,17.1612903 8.58064516,17.1612903 L8.58064516,17.1612903 L48.5247742,17.1612903 L48.8581935,16.827871 C47.5196129,16.2309032 46.5806452,14.8935484 46.5806452,13.3355484 C46.5806452,12.3132258 46.9778065,11.3521935 47.7010323,10.6301935 L47.7010323,10.6301935 L54.7592258,3.572 C55.4714194,2.85980645 56.4569677,2.4516129 57.4645806,2.4516129 C59.0213548,2.4516129 60.3599355,3.39058065 60.9569032,4.72916129 L60.9569032,4.72916129 L63.5494839,2.13535484 C64.9272903,0.758774194 66.7586452,0 68.7064516,0 Z M73.5483871,66.1935484 L2.4516129,66.1935484 L2.4516129,69.8709677 C2.4516129,71.8984516 4.10154839,73.5483871 6.12903226,73.5483871 L6.12903226,73.5483871 L69.8709677,73.5483871 C71.8984516,73.5483871 73.5483871,71.8984516 73.5483871,69.8709677 L73.5483871,69.8709677 L73.5483871,66.1935484 Z M46.0731613,19.6129032 L8.58064516,19.6129032 C6.55316129,19.6129032 4.90322581,21.2628387 4.90322581,23.2903226 L4.90322581,23.2903226 L4.90322581,63.7419355 L71.0967742,63.7419355 L71.0967742,23.2903226 C71.0967742,21.2628387 69.4468387,19.6129032 67.4193548,19.6129032 L67.4193548,19.6129032 L66.7010323,19.6129032 L64.2494194,22.0645161 L66.1935484,22.0645161 C67.5456129,22.0645161 68.6451613,23.1640645 68.6451613,24.516129 L68.6451613,24.516129 L68.6451613,58.8387097 C68.6451613,60.1907742 67.5456129,61.2903226 66.1935484,61.2903226 L66.1935484,61.2903226 L9.80645161,61.2903226 C8.4543871,61.2903226 7.35483871,60.1907742 7.35483871,58.8387097 L7.35483871,58.8387097 L7.35483871,24.516129 C7.35483871,23.1640645 8.4543871,22.0645161 9.80645161,22.0645161 L9.80645161,22.0645161 L46.0731613,22.0645161 L47.2989677,20.8387097 L46.0731613,19.6129032 Z M43.6215484,24.516129 L9.80645161,24.516129 L9.80645161,58.8387097 L66.1935484,58.8387097 L66.1935484,24.516129 L61.7978065,24.516129 L56.3870968,29.9268387 L55.1612903,28.7010323 L51.990129,31.8709677 L63.7407097,31.8709677 L63.7407097,56.3870968 L39.2245806,56.3870968 L39.2245806,43.1116129 C38.9144516,43.1116129 38.608,43.0589032 38.3052258,42.9804516 L38.3052258,42.9804516 L35.7923226,44.8645161 C34.3189032,45.9701935 32.4912258,46.5806452 30.6451613,46.5806452 L30.6451613,46.5806452 L29.4193548,46.5806452 C27.5549032,46.5806452 26.9027742,45.4222581 26.5129677,44.7309032 C26.2052903,44.1854194 26.1746452,44.1290323 25.7419355,44.1290323 C25.2773548,44.1290323 24.9267742,44.5519355 24.2893548,45.4504516 C23.5857419,46.4445806 22.6210323,47.8064516 20.8387097,47.8064516 C18.8381935,47.8064516 18.2203871,46.1565161 17.8514194,45.1721935 C17.4616129,44.1290323 17.3672258,44.1290323 17.1612903,44.1290323 C16.5250968,44.1290323 16.1904516,44.4183226 15.5505806,45.0214194 C14.851871,45.6796774 13.8945161,46.5806452 12.2580645,46.5806452 L12.2580645,46.5806452 L12.2580645,44.1290323 C12.8942581,44.1290323 13.2289032,43.8397419 13.8687742,43.2366452 C14.5674839,42.5783871 15.5248387,41.6774194 17.1612903,41.6774194 C18.8654337,41.6774194 19.5662116,42.8746976 19.9645237,43.8379034 L20.0620309,44.0829236 C20.0925534,44.1621997 20.1212497,44.2387646 20.1485806,44.3116774 C20.5383871,45.3548387 20.6327742,45.3548387 20.8387097,45.3548387 C21.3032903,45.3548387 21.653871,44.9319355 22.2912903,44.0334194 C22.9949032,43.0392903 23.9596129,41.6774194 25.7419355,41.6774194 C27.6063871,41.6774194 28.2585161,42.8358065 28.6483226,43.5271613 C28.956,44.0726452 28.9866452,44.1290323 29.4193548,44.1290323 L29.4193548,44.1290323 L29.5186452,44.1290323 C29.7258065,42.7144516 30.2749677,41.3525806 31.1354839,40.2064516 L31.1354839,40.2064516 L33.0170968,37.6972258 C32.939871,37.398129 32.8859355,37.0916774 32.8859355,36.7741935 C32.8859355,35.7910968 33.2696129,34.8680645 33.9634194,34.1730323 L33.9634194,34.1730323 L43.6215484,24.516129 Z M14.7096774,53.9354839 L14.7096774,56.3870968 L12.2580645,56.3870968 L12.2580645,53.9354839 L14.7096774,53.9354839 Z M19.6129032,53.9354839 L19.6129032,56.3870968 L17.1612903,56.3870968 L17.1612903,53.9354839 L19.6129032,53.9354839 Z M24.516129,53.9354839 L24.516129,56.3870968 L22.0645161,56.3870968 L22.0645161,53.9354839 L24.516129,53.9354839 Z M61.2903226,34.3225806 L49.5397419,34.3225806 L41.8257419,42.0365806 C41.7791613,42.0831613 41.7252258,42.1150323 41.6774194,42.1579355 L41.6774194,42.1579355 L41.6774194,53.9354839 L61.2903226,53.9354839 L61.2903226,34.3225806 Z M34.4549677,39.8656774 L33.0967742,41.6774194 C32.5868387,42.3577419 32.224,43.1422581 32.0315484,43.9684516 C32.8577419,43.776 33.6422581,43.4143871 34.3213548,42.9032258 L34.3213548,42.9032258 L36.1330968,41.5438065 L34.4549677,39.8656774 Z M49.0322581,22.572 L35.6967097,35.9063226 C35.4650323,36.138 35.3375484,36.4444516 35.3375484,36.7729677 C35.3375484,37.1014839 35.4650323,37.4091613 35.6967097,37.6396129 L35.6967097,37.6396129 L38.3591613,40.3020645 C38.8384516,40.780129 39.6131613,40.7813548 40.0924516,40.3020645 L40.0924516,40.3020645 L53.428,26.9677419 L49.0322581,22.572 Z M29.4193548,36.7741935 L29.4193548,39.2258065 L12.2580645,39.2258065 L12.2580645,36.7741935 L29.4193548,36.7741935 Z M29.4193548,31.8709677 L29.4193548,34.3225806 L12.2580645,34.3225806 L12.2580645,31.8709677 L29.4193548,31.8709677 Z M68.7064516,2.4516129 C67.4132258,2.4516129 66.1972258,2.95541935 65.2827742,3.86987097 L65.2827742,3.86987097 L49.5397419,19.6129032 L56.3870968,26.4602581 L72.130129,10.7172258 C73.0445806,9.80277419 73.5483871,8.58677419 73.5483871,7.29354839 C73.5483871,4.62374194 71.3762581,2.4516129 68.7064516,2.4516129 Z M54.7935484,17.0170154 L56.5268387,18.7503057 L54.7935484,20.483596 L53.0602581,18.7503057 L54.7935484,17.0170154 Z M58.2604882,13.549823 L59.9937785,15.2831134 L58.2604882,17.0164037 L56.5271979,15.2831134 L58.2604882,13.549823 Z M57.4645806,4.90322581 C57.1029677,4.90322581 56.7487097,5.05032258 56.4925161,5.30529032 L56.4925161,5.30529032 L49.4343226,12.3634839 C49.1744516,12.6233548 49.0322581,12.9678065 49.0322581,13.3355484 C49.0322581,14.0930968 49.6488387,14.7096774 50.4063871,14.7096774 C50.768,14.7096774 51.1210323,14.5625806 51.3772258,14.3076129 L51.3772258,14.3076129 L58.437871,7.24696774 C58.6965161,6.98709677 58.8387097,6.64387097 58.8387097,6.27735484 C58.8387097,5.51980645 58.222129,4.90322581 57.4645806,4.90322581 Z" id="Combined-Shape"></path>
                    </g>
                </g>
            </g>
        </g>
    </g>
</svg>