<?xml version="1.0" encoding="UTF-8"?>
<svg width="112px" height="112px" viewBox="0 0 112 112" version="1.1" xmlns="http://www.w3.org/2000/svg" xmlns:xlink="http://www.w3.org/1999/xlink">
    <title>keyaspects4</title>
    <g id="Page-1" stroke="none" stroke-width="1" fill="none" fill-rule="evenodd">
        <g id="홈" transform="translate(-1137.000000, -1136.000000)" fill="#4CD3FF" fill-rule="nonzero">
            <g id="Group-16" transform="translate(1059.000000, 1048.000000)">
                <g id="keyaspects4" transform="translate(78.000000, 88.000000)">
                    <path d="M27.875,38 C28.4962812,38 29,38.5037187 29,39.125 C29,39.7462813 28.4962812,40.25 27.875,40.25 L27.875,40.25 L27.8474375,40.25 C27.2904219,40.25 26.823125,40.649375 26.7360781,41.1995 C26.7325625,41.2217187 26.7284844,41.2437969 26.7237031,41.2657344 L26.7237031,41.2657344 L22.9830781,58.2734844 C23.11175,58.2585781 23.2423906,58.25 23.375,58.25 L23.375,58.25 L88.625,58.25 C88.7576094,58.25 88.88825,58.2585781 89.0167813,58.2734844 L89.0167813,58.2734844 L85.2761562,41.2657344 C85.271375,41.2437969 85.2672969,41.2217188 85.2637813,41.1995 C85.176875,40.649375 84.7095781,40.25 84.1525625,40.25 L84.1525625,40.25 L84.125,40.25 C83.5037187,40.25 83,39.7462813 83,39.125 C83,38.5037187 83.5037187,38 84.125,38 L84.125,38 L84.1525625,38 C85.8112344,38 87.2048281,39.1804063 87.4803125,40.8120781 L87.4803125,40.8120781 L91.81775,60.5329062 C91.9024063,60.7795625 91.9595,61.0387344 91.9846719,61.3073281 C91.9969062,61.3845313 92.0012656,61.4611719 91.99775,61.5366875 C91.9985937,61.5660781 92,61.5953281 92,61.625 L92,61.625 L92,88.625 C92,90.4860312 90.4860312,92 88.625,92 L88.625,92 L23.375,92 C21.5139688,92 20,90.4860312 20,88.625 L20,88.625 L20.0008086,61.5807207 L20.0008086,61.5807207 L20.00225,61.5365469 C19.998875,61.4611719 20.0030938,61.3845312 20.0154688,61.3073281 C20.0406406,61.0387344 20.0977344,60.7795625 20.1823906,60.5329062 L20.1823906,60.5329062 L24.5196875,40.8120781 C24.7950313,39.1804063 26.1887656,38 27.8474375,38 L27.8474375,38 Z M88.6251406,60.5 L23.3751406,60.5 C22.9152969,60.5 22.5197187,60.7775938 22.3453438,61.1735938 L22.3453438,61.1735938 L22.2512656,61.6012344 C22.2509844,61.60925 22.25,61.6169844 22.25,61.625 L22.25,62.9435 C22.602125,62.818625 22.9806875,62.75 23.375,62.75 L23.375,62.75 L73.9998594,62.75 C74.6211406,62.75 75.1248594,63.2537187 75.1248594,63.875 C75.1248594,64.4962813 74.6211406,65 73.9998594,65 L73.9998594,65 L23.375,65 C22.7547031,65 22.25,65.5047031 22.25,66.125 L22.25,66.125 L22.25,88.625 C22.25,89.2452969 22.7547031,89.75 23.375,89.75 L23.375,89.75 L88.625,89.75 C89.2452969,89.75 89.7502813,89.2452969 89.7502813,88.625 L89.7502813,88.625 L89.7502813,66.125 C89.7502813,65.5047031 89.2455781,65 88.6252813,65 L88.6252813,65 L85.2502813,65 C84.629,65 84.1252813,64.4962813 84.1252813,63.875 C84.1252813,63.2537187 84.629,62.75 85.2502813,62.75 L85.2502813,62.75 L88.6252813,62.75 C89.0195937,62.75 89.3981562,62.818625 89.7502813,62.9435 L89.7502813,62.9435 L89.7502813,61.625 C89.7502813,61.6169844 89.7491562,61.60925 89.7490156,61.6012344 L89.7490156,61.6012344 L89.6549375,61.1735938 C89.4805625,60.7775937 89.0848438,60.5 88.6251406,60.5 L88.6251406,60.5 Z M67.25,74 C69.1108906,74 70.625,75.5141094 70.625,77.375 C70.625,79.2358906 69.1108906,80.75 67.25,80.75 L67.25,80.75 L44.75,80.75 C42.8891094,80.75 41.375,79.2358906 41.375,77.375 C41.375,75.5141094 42.8891094,74 44.75,74 L44.75,74 Z M67.25,76.25 L44.75,76.25 C44.1297031,76.25 43.625,76.7547031 43.625,77.375 C43.625,77.9952969 44.1297031,78.5 44.75,78.5 L44.75,78.5 L67.25,78.5 C67.8702969,78.5 68.375,77.9952969 68.375,77.375 C68.375,76.7547031 67.8702969,76.25 67.25,76.25 L67.25,76.25 Z M80.7502813,62.75 C81.3715625,62.75 81.8752813,63.2537187 81.8752813,63.875 C81.8752813,64.4962813 81.3715625,65 80.7502813,65 L80.7502813,65 L78.5,65 C77.8787188,65 77.375,64.4962813 77.375,63.875 C77.375,63.2537187 77.8787188,62.75 78.5,62.75 L78.5,62.75 Z M71.75,20 C72.9905938,20 74,21.0094063 74,22.25 L74,22.25 L74,24.5 C75.2405938,24.5 76.25,25.5094062 76.25,26.75 L76.25,26.75 L76.25,29 C77.4905937,29 78.5,30.0094062 78.5,31.25 L78.5,31.25 L78.5,33.5 C79.7405938,33.5 80.75,34.5094062 80.75,35.75 L80.75,35.75 L80.75,54.875 C80.75,55.4962813 80.2462813,56 79.625,56 C79.0037188,56 78.5,55.4962813 78.5,54.875 L78.5,54.875 L78.5,35.75 L33.5,35.75 L33.5,54.875 C33.5,55.4962813 32.9962813,56 32.375,56 C31.7537187,56 31.25,55.4962813 31.25,54.875 L31.25,54.875 L31.25,35.75 C31.25,34.5094062 32.2594062,33.5 33.5,33.5 L33.5,33.5 L33.5,31.25 C33.5,30.0094062 34.5094062,29 35.75,29 L35.75,29 L35.75,26.75 C35.75,25.5094062 36.7594062,24.5 38,24.5 L38,24.5 L38,22.25 C38,21.0094063 39.0094062,20 40.25,20 L40.25,20 Z M48.125,53.75 C48.7462813,53.75 49.25,54.2537187 49.25,54.875 C49.25,55.4962813 48.7462813,56 48.125,56 L48.125,56 L38,56 C37.3787187,56 36.875,55.4962813 36.875,54.875 C36.875,54.2537187 37.3787187,53.75 38,53.75 L38,53.75 Z M74,53.75 C74.6212813,53.75 75.125,54.2537187 75.125,54.875 C75.125,55.4962813 74.6212813,56 74,56 L74,56 L60.5,56 C59.8787187,56 59.375,55.4962813 59.375,54.875 C59.375,54.2537187 59.8787187,53.75 60.5,53.75 L60.5,53.75 Z M56,49.25 C56.6212812,49.25 57.125,49.7537187 57.125,50.375 C57.125,50.9962813 56.6212812,51.5 56,51.5 L56,51.5 L38,51.5 C37.3787187,51.5 36.875,50.9962813 36.875,50.375 C36.875,49.7537187 37.3787187,49.25 38,49.25 L38,49.25 Z M74,49.25 C74.6212813,49.25 75.125,49.7537187 75.125,50.375 C75.125,50.9962813 74.6212813,51.5 74,51.5 L74,51.5 L68.375,51.5 C67.7537187,51.5 67.25,50.9962813 67.25,50.375 C67.25,49.7537187 67.7537187,49.25 68.375,49.25 L68.375,49.25 Z M52.625,44.75 C53.2462813,44.75 53.75,45.2537187 53.75,45.875 C53.75,46.4962813 53.2462813,47 52.625,47 L52.625,47 L43.625,47 C43.0037187,47 42.5,46.4962813 42.5,45.875 C42.5,45.2537187 43.0037187,44.75 43.625,44.75 L43.625,44.75 Z M39.125,44.75 C39.7462813,44.75 40.25,45.2537187 40.25,45.875 C40.25,46.4962813 39.7462813,47 39.125,47 L39.125,47 L38,47 C37.3787187,47 36.875,46.4962813 36.875,45.875 C36.875,45.2537187 37.3787187,44.75 38,44.75 L38,44.75 Z M59.375,40.25 C59.9962813,40.25 60.5,40.7537187 60.5,41.375 C60.5,41.9962813 59.9962813,42.5 59.375,42.5 L59.375,42.5 L43.625,42.5 C43.0037187,42.5 42.5,41.9962813 42.5,41.375 C42.5,40.7537187 43.0037187,40.25 43.625,40.25 L43.625,40.25 Z M39.125,40.25 C39.7462813,40.25 40.25,40.7537187 40.25,41.375 C40.25,41.9962813 39.7462813,42.5 39.125,42.5 L39.125,42.5 L38,42.5 C37.3787187,42.5 36.875,41.9962813 36.875,41.375 C36.875,40.7537187 37.3787187,40.25 38,40.25 L38,40.25 Z M76.25,31.25 L35.75,31.25 L35.75,33.5 L76.25,33.5 L76.25,31.25 Z M74,26.75 L38,26.75 L38,29 L74,29 L74,26.75 Z M71.75,22.25 L40.25,22.25 L40.25,24.5 L71.75,24.5 L71.75,22.25 Z" id="Combined-Shape"></path>
                </g>
            </g>
        </g>
    </g>
</svg>