<?xml version="1.0" encoding="UTF-8"?>
<svg width="112px" height="112px" viewBox="0 0 112 112" version="1.1" xmlns="http://www.w3.org/2000/svg" xmlns:xlink="http://www.w3.org/1999/xlink">
    <title>keyaspects6</title>
    <g id="Page-1" stroke="none" stroke-width="1" fill="none" fill-rule="evenodd">
        <g id="홈" transform="translate(-664.000000, -1467.000000)" fill="#4CD3FF" fill-rule="nonzero">
            <g id="Group-13" transform="translate(587.000000, 1379.000000)">
                <g id="keyaspects6" transform="translate(77.000000, 88.000000)">
                    <path d="M73.7090079,20 C75.1202362,20 76.4543622,20.5662205 77.428063,21.5406299 L77.428063,21.5406299 L88.3869449,32.4995118 C89.3799213,33.4917795 89.9272913,34.8389449 89.9272913,36.2182835 L89.9272913,36.2182835 L89.9272913,87.3079528 C89.9272913,90.2076535 87.5680157,92.5669291 84.6681732,92.5669291 L84.6681732,92.5669291 L37.6467874,92.5669291 C34.7470866,92.5669291 32.387811,90.2077953 32.387811,87.3079528 L32.387811,87.3079528 L32.387811,83.9014173 C32.387811,83.3145039 32.863748,82.8385669 33.4506614,82.8385669 C34.0375748,82.8385669 34.5135118,83.3143622 34.5135118,83.9014173 L34.5135118,83.9014173 L34.5135118,87.3079528 C34.5135118,89.0356693 35.9192126,90.4412283 37.6467874,90.4412283 L37.6467874,90.4412283 L62.3039528,90.4412283 L53.3646142,81.5018898 C52.6606299,80.7980472 52.4715591,79.7734646 52.7921575,78.8945827 L52.7921575,78.8945827 L50.7108189,76.8132441 C42.5646142,82.6648031 31.2756378,81.8122835 24.1031339,74.6396378 C16.062378,66.5988819 16.062378,53.5155748 24.1031339,45.4748189 C32.2287874,37.3490236 45.3007559,37.5077638 53.2679528,45.4748189 C60.4466929,52.6537008 61.312252,63.9319055 55.4422677,72.0832126 L55.4422677,72.0832126 L57.5228976,74.1638425 C58.4017795,73.8432441 59.4263622,74.032315 60.1302047,74.7361575 L60.1302047,74.7361575 L69.7942205,84.4001732 C71.4337795,86.0397323 71.6316378,88.5829764 70.3887874,90.4412283 L70.3887874,90.4412283 L84.6680315,90.4412283 C86.395748,90.4412283 87.8013071,89.0355276 87.8013071,87.3079528 L87.8013071,87.3079528 L87.8013071,36.2182835 C87.8013071,35.9920787 87.7762205,35.7648819 87.7271811,35.5430709 L87.7271811,35.5430709 L78.0485669,35.5430709 C76.0280315,35.5430709 74.3842205,33.8992598 74.3842205,31.8787244 L74.3842205,31.8787244 L74.3842205,22.1989764 C74.1638268,22.1503622 73.9383307,22.1258425 73.7090079,22.1258425 L73.7090079,22.1258425 L37.6467874,22.1258425 C35.9190709,22.1258425 34.5135118,23.5314016 34.5135118,25.2591181 L34.5135118,25.2591181 L34.5135118,36.1414646 C34.5135118,36.728378 34.0375748,37.204315 33.4506614,37.204315 C32.863748,37.204315 32.387811,36.7285197 32.387811,36.1414646 L32.387811,36.1414646 L32.387811,25.2591181 C32.387811,22.3592756 34.7469449,20 37.6467874,20 L37.6467874,20 Z M58.6272756,76.2392283 C58.4888031,76.1007559 58.2633071,76.1007559 58.1249764,76.2392283 L58.1249764,76.2392283 L54.8825669,79.4816378 C54.8824252,79.4819213 54.8821417,79.482063 54.8818583,79.4823465 L54.8818583,79.4823465 L54.8678268,79.496378 C54.7290709,79.6352756 54.7293543,79.8602047 54.8678268,79.9986772 L54.8678268,79.9986772 L64.5317008,89.6625512 C65.5707402,90.7014488 67.2521102,90.7014488 68.2911496,89.6625512 C69.3274961,88.626063 69.3274961,86.9397323 68.2911496,85.9032441 L68.2911496,85.9032441 Z M51.7650236,46.9778898 C44.6326299,39.8456378 32.9102362,39.6741417 25.6064882,46.9778898 C18.3945827,54.189937 18.3945827,65.9245197 25.6064882,73.1364252 C32.2683307,79.7982677 42.8455276,80.3583937 50.1497008,74.5752913 C51.2793071,73.6809606 52.3104094,72.6494331 53.2038898,71.5211024 C59.0244094,64.1700157 58.405748,53.6187559 51.7650236,46.9778898 Z M54.1050236,73.752252 C53.5592126,74.3655276 52.9859055,74.9377008 52.3848189,75.4727402 L52.3848189,75.4727402 L52.3807087,75.4767087 L54.1309606,77.2271024 L55.8554173,75.5026457 Z M27.1004882,48.4720315 C33.4886457,42.083874 43.8825827,42.083874 50.2707402,48.4720315 C56.6588976,54.8600472 56.6588976,65.2542677 50.2707402,71.6422835 C43.9109291,78.002378 33.5167087,78.0585039 27.1006299,71.642 C24.7005354,69.2417638 23.1254646,66.2115276 22.5454961,62.8788346 C22.4448661,62.3005669 22.8320787,61.7500787 23.4104882,61.6494488 C23.9887559,61.5488189 24.5392441,61.9361732 24.639874,62.5144409 C25.0860472,65.0789449 26.2112598,67.4372283 27.9106299,69.3934173 C28.3695591,68.4958268 29.1152126,67.7668976 30.0693543,67.3370236 C31.3241102,66.7720787 33.4917638,66.4014488 34.8254646,66.2142205 L34.8254646,66.2142205 L34.8192283,64.7497008 C33.5902677,63.7993858 32.7198898,62.4019055 32.4626457,60.7936693 C31.7898425,60.5086457 31.3165984,59.8416535 31.3165984,59.0662362 L31.3165984,59.0662362 L31.3165984,54.0711654 C31.3165984,51.4260157 33.4686614,49.2740945 36.113811,49.2740945 L36.113811,49.2740945 L41.2449449,49.2740945 C42.5090551,49.2740945 43.5656693,50.1789134 43.8012283,51.3748504 C45.0284882,51.5850394 45.965622,52.6566772 45.965622,53.9428976 L45.965622,53.9428976 L45.9661713,56.4764154 C45.9670394,57.4061969 45.9690945,58.3420551 45.9738425,59.0463937 C45.9771024,59.5511024 45.7830709,60.0263307 45.4271811,60.3846299 C45.2488819,60.5642047 45.0406772,60.7035276 44.8137638,60.7977795 C44.5505669,62.4566142 43.6346929,63.890378 42.3443622,64.8404094 L42.3443622,64.8404094 L42.3500315,66.1826142 C43.6852913,66.3586457 45.856063,66.7109921 47.1152126,67.2653071 C48.1538268,67.7225354 48.9479528,68.4961102 49.4148189,69.4461417 C54.3166299,63.8521102 54.1014803,55.3090551 48.7675276,49.9751024 C43.2082205,44.415937 34.1627244,44.415937 28.6035591,49.9751024 C26.4405827,52.1382205 25.0535906,54.8746457 24.5923937,57.8884409 C24.5036693,58.4688346 23.9615433,58.8675276 23.3810079,58.778378 C22.8006142,58.6896535 22.4023465,58.1472441 22.4910709,57.5669921 C23.0211496,54.1024882 24.6150709,50.9575906 27.1004882,48.4720315 Z M42.3812126,68.3319843 C41.3802992,69.3311969 40.0312913,69.8961417 38.5963937,69.9003937 L38.5963937,69.9003937 L38.5802362,69.9003937 C37.1559685,69.9003937 35.814189,69.3473543 34.8121417,68.363874 C33.058063,68.6229606 31.6652598,68.949937 30.9421417,69.2754961 C30.2258268,69.5983622 29.7293386,70.2465039 29.5749921,71.024189 C34.8138425,75.3827402 42.4668189,75.4024409 47.7269291,71.0821575 C47.5980945,70.2510394 47.0722677,69.5690236 46.2588661,69.2110079 C45.5330551,68.8914016 44.1375591,68.5763307 42.3812126,68.3319843 Z M72.8026299,66.8209764 C73.3895433,66.8209764 73.8654803,67.2969134 73.8654803,67.8838268 C73.8654803,68.4707402 73.389685,68.9466772 72.8026299,68.9466772 L72.8026299,68.9466772 L63.6380787,68.9466772 C63.0511654,68.9466772 62.5752283,68.4707402 62.5752283,67.8838268 C62.5752283,67.2969134 63.0510236,66.8209764 63.6380787,66.8209764 L63.6380787,66.8209764 Z M36.949748,65.824315 L36.9524409,66.4598425 C36.9535748,66.7348031 36.892063,66.9972913 36.7823622,67.234126 C37.3090394,67.5832126 37.9303937,67.7746929 38.5806614,67.7746929 L38.5806614,67.7746929 C39.2468031,67.7727087 39.8728346,67.5759843 40.4013543,67.2193858 C40.2896693,66.9835433 40.2265984,66.7211969 40.2254646,66.4462362 L40.2254646,66.4462362 L40.2229134,65.8535118 C39.7169291,65.985748 39.1869921,66.0574646 38.6411811,66.0574646 C38.0561102,66.0574646 37.4886142,65.9761102 36.949748,65.824315 L36.949748,65.824315 Z M42.3565512,56.5093858 C41.5525039,56.4339843 40.7301732,56.6247559 40.0413543,57.0466929 C39.1155591,57.613622 38.0525669,57.9133858 36.9668976,57.9133858 L36.9668976,57.9133858 L33.4424409,57.9133858 L33.4424409,58.8393228 C34.0262362,58.9514331 34.4796378,59.4470709 34.517622,60.0590709 C34.6524094,62.2306929 36.4636063,63.931622 38.6411811,63.931622 C40.8232913,63.931622 42.6317953,62.2292756 42.7583622,60.0559528 C42.7945039,59.438 43.2549921,58.9392441 43.8467244,58.8353543 C43.8430394,58.1669449 43.8413386,57.3032283 43.8404882,56.6485669 L43.8404882,56.6485669 Z M81.9673228,60.4128346 C82.5542362,60.4128346 83.0301732,60.8886299 83.0301732,61.475685 C83.0301732,62.0627402 82.5542362,62.5386772 81.9673228,62.5385355 L81.9673228,62.5385355 L63.6380787,62.5385355 C63.0511654,62.5385355 62.5752283,62.0625984 62.5752283,61.475685 C62.5752283,60.8887717 63.0510236,60.4128346 63.6380787,60.4128346 L63.6380787,60.4128346 Z M81.9671811,54.0046929 C82.5542362,54.0046929 83.0301732,54.4806299 83.0301732,55.0675433 C83.0301732,55.6544567 82.554378,56.1303937 81.9673228,56.1303937 L81.9673228,56.1303937 L63.6380787,56.1303937 C63.0511654,56.1303937 62.5752283,55.6544567 62.5752283,55.0675433 C62.5752283,54.4806299 63.0510236,54.0046929 63.6380787,54.0046929 L63.6380787,54.0046929 Z M41.2449449,51.4000787 L36.113811,51.4000787 C34.6407874,51.4000787 33.4424409,52.5984252 33.4425827,54.0715906 L33.4425827,54.0715906 L33.4425827,55.7878268 L36.9670394,55.7878268 C37.6605354,55.7878268 38.3397165,55.5963465 38.9311654,55.2342205 C40.0094646,54.5738898 41.2966772,54.2754016 42.5552598,54.3931811 L42.5552598,54.3931811 L43.840063,54.5136535 L43.840063,53.9431811 C43.840063,53.6787087 43.6249134,53.4635591 43.3604409,53.4635591 L43.3604409,53.4635591 L43.3084252,53.4635591 C42.4350709,53.4635591 41.7245669,52.7530551 41.7245669,51.8797008 C41.7245669,51.6152283 41.5094173,51.4000787 41.2449449,51.4000787 L41.2449449,51.4000787 Z M81.9671811,47.5965512 C82.5542362,47.5965512 83.0301732,48.0724882 83.0301732,48.6594016 C83.0301732,49.246315 82.554378,49.722252 81.9673228,49.722252 L81.9673228,49.722252 L63.6380787,49.722252 C63.0511654,49.722252 62.5752283,49.246315 62.5752283,48.6594016 C62.5752283,48.0724882 63.0510236,47.5965512 63.6380787,47.5965512 L63.6380787,47.5965512 Z M62.4149291,26.8971181 C63.6753543,26.8971181 64.7010709,27.9226929 64.7010709,29.1832598 L64.7010709,29.1832598 L64.7010709,33.2570709 C64.7010709,34.5176378 63.6754961,35.5432126 62.4149291,35.5432126 L62.4149291,35.5432126 L41.3270079,35.5432126 C40.0664409,35.5432126 39.0408661,34.5176378 39.0408661,33.2570709 L39.0408661,33.2570709 L39.0408661,29.1832598 C39.0408661,27.9226929 40.0664409,26.8971181 41.3270079,26.8971181 L41.3270079,26.8971181 Z M76.510063,23.6289134 L76.510063,31.8787244 C76.510063,32.7269921 77.2001575,33.4172283 78.0487087,33.4172283 L78.0487087,33.4172283 L86.298378,33.4172283 L76.510063,23.6289134 Z M62.4149291,29.0229606 L41.3270079,29.0229606 C41.2385669,29.0229606 41.1667087,29.0949606 41.1667087,29.1832598 L41.1667087,29.1832598 L41.1667087,33.2569291 C41.1667087,33.3453701 41.2387087,33.4172283 41.3270079,33.4172283 L41.3270079,33.4172283 L62.4147874,33.4172283 C62.5032283,33.4172283 62.5752283,33.3452283 62.5752283,33.2569291 L62.5752283,33.2569291 L62.5752283,29.1832598 C62.5752283,29.0948189 62.5033701,29.0229606 62.4149291,29.0229606 L62.4149291,29.0229606 Z" id="Combined-Shape"></path>
                </g>
            </g>
        </g>
    </g>
</svg>